<svg width="180" height="227" viewBox="0 0 180 227" fill="none" xmlns="http://www.w3.org/2000/svg">
<path d="M180 90C180 40.2944 139.706 0 90 0C40.2944 0 0 40.2944 0 90C0 139.706 40.2944 180 90 180C139.706 180 180 139.706 180 90Z" fill="#006FFD"/>
<path d="M104.197 73.2656C103.866 70.1643 102.469 67.7495 100.007 66.0213C97.5686 64.2931 94.3962 63.429 90.49 63.429C87.7437 63.429 85.3882 63.8433 83.4232 64.6719C81.4582 65.5005 79.9549 66.625 78.9133 68.0455C77.8716 69.4659 77.3389 71.0876 77.3152 72.9105C77.3152 74.4257 77.6585 75.7396 78.3451 76.8523C79.0553 77.965 80.0141 78.9119 81.2215 79.6932C82.4289 80.4508 83.7665 81.09 85.2343 81.6108C86.7021 82.1316 88.1817 82.5696 89.6732 82.9247L96.4914 84.6293C99.2376 85.2685 101.877 86.1326 104.411 87.2216C106.967 88.3106 109.252 89.6837 111.264 91.3409C113.3 92.9981 114.91 94.9986 116.094 97.3423C117.277 99.6861 117.869 102.432 117.869 105.581C117.869 109.842 116.78 113.595 114.602 116.838C112.424 120.058 109.276 122.579 105.156 124.402C101.061 126.201 96.1008 127.101 90.2769 127.101C84.6187 127.101 79.7063 126.225 75.5397 124.473C71.3967 122.721 68.1533 120.164 65.8096 116.803C63.4895 113.441 62.2347 109.345 62.0454 104.516H75.007C75.1964 107.049 75.9776 109.156 77.3508 110.837C78.7239 112.518 80.5113 113.772 82.713 114.601C84.9383 115.429 87.4241 115.844 90.1704 115.844C93.0349 115.844 95.5444 115.418 97.6988 114.565C99.8768 113.689 101.581 112.482 102.812 110.943C104.044 109.381 104.671 107.558 104.695 105.474C104.671 103.58 104.115 102.018 103.026 100.787C101.937 99.5322 100.41 98.4905 98.4445 97.6619C96.5032 96.8097 94.2305 96.0521 91.6263 95.3892L83.3522 93.2585C77.3626 91.7197 72.6277 89.3878 69.1476 86.2628C65.6912 83.1141 63.963 78.9356 63.963 73.7273C63.963 69.4422 65.123 65.6899 67.4431 62.4702C69.7868 59.2505 72.971 56.7528 76.9956 54.9773C81.0203 53.178 85.5776 52.2784 90.6675 52.2784C95.8285 52.2784 100.35 53.178 104.233 54.9773C108.139 56.7528 111.205 59.2268 113.43 62.3991C115.656 65.5478 116.804 69.17 116.875 73.2656H104.197Z" fill="white"/>
<path d="M22.042 218V203.455H24.6769V209.612H31.417V203.455H34.059V218H31.417V211.821H24.6769V218H22.042ZM41.6407 218.213C40.547 218.213 39.6024 217.986 38.8069 217.531C38.0162 217.072 37.4077 216.423 36.9816 215.585C36.5555 214.742 36.3424 213.75 36.3424 212.609C36.3424 211.487 36.5555 210.502 36.9816 209.655C37.4125 208.803 38.0138 208.14 38.7856 207.666C39.5574 207.188 40.4641 206.949 41.5058 206.949C42.1781 206.949 42.8126 207.058 43.4092 207.276C44.0105 207.489 44.5408 207.82 45.0001 208.27C45.4641 208.72 45.8287 209.293 46.0938 209.989C46.359 210.68 46.4916 211.504 46.4916 212.46V213.249H37.5498V211.516H44.0271C44.0223 211.023 43.9158 210.585 43.7075 210.202C43.4991 209.813 43.2079 209.508 42.8339 209.286C42.4646 209.063 42.0337 208.952 41.5413 208.952C41.0157 208.952 40.5541 209.08 40.1563 209.335C39.7586 209.586 39.4485 209.918 39.2259 210.33C39.0081 210.737 38.8969 211.184 38.8921 211.672V213.185C38.8921 213.819 39.0081 214.364 39.2401 214.818C39.4721 215.268 39.7965 215.614 40.2131 215.855C40.6298 216.092 41.1175 216.21 41.6762 216.21C42.0503 216.21 42.3888 216.158 42.6918 216.054C42.9949 215.945 43.2577 215.786 43.4802 215.578C43.7027 215.37 43.8708 215.112 43.9845 214.804L46.385 215.074C46.2335 215.708 45.9447 216.262 45.5185 216.736C45.0971 217.205 44.5574 217.569 43.8992 217.83C43.2411 218.085 42.4882 218.213 41.6407 218.213ZM51.2376 203.455V218H48.6666V203.455H51.2376ZM56.4525 203.455V218H53.8815V203.455H56.4525ZM63.8548 218.213C62.7895 218.213 61.8662 217.979 61.0849 217.51C60.3037 217.041 59.6976 216.385 59.2668 215.543C58.8406 214.7 58.6276 213.715 58.6276 212.588C58.6276 211.461 58.8406 210.474 59.2668 209.626C59.6976 208.779 60.3037 208.121 61.0849 207.652C61.8662 207.183 62.7895 206.949 63.8548 206.949C64.9202 206.949 65.8435 207.183 66.6247 207.652C67.406 208.121 68.0097 208.779 68.4358 209.626C68.8667 210.474 69.0821 211.461 69.0821 212.588C69.0821 213.715 68.8667 214.7 68.4358 215.543C68.0097 216.385 67.406 217.041 66.6247 217.51C65.8435 217.979 64.9202 218.213 63.8548 218.213ZM63.869 216.153C64.4467 216.153 64.9296 215.995 65.3179 215.678C65.7062 215.356 65.995 214.925 66.1844 214.385C66.3785 213.845 66.4756 213.244 66.4756 212.581C66.4756 211.913 66.3785 211.31 66.1844 210.77C65.995 210.225 65.7062 209.792 65.3179 209.47C64.9296 209.148 64.4467 208.987 63.869 208.987C63.2772 208.987 62.7848 209.148 62.3918 209.47C62.0035 209.792 61.7123 210.225 61.5182 210.77C61.3288 211.31 61.2341 211.913 61.2341 212.581C61.2341 213.244 61.3288 213.845 61.5182 214.385C61.7123 214.925 62.0035 215.356 62.3918 215.678C62.7848 215.995 63.2772 216.153 63.869 216.153ZM74.2827 216.011L74.1904 216.793C74.1241 217.389 74.0058 217.995 73.8353 218.611C73.6696 219.231 73.4944 219.802 73.3097 220.322C73.1251 220.843 72.9759 221.253 72.8623 221.551H71.1293C71.1956 221.262 71.2856 220.869 71.3992 220.372C71.5176 219.875 71.6312 219.316 71.7401 218.696C71.849 218.076 71.9224 217.446 71.9603 216.807L72.01 216.011H74.2827Z" fill="#8F9BB3"/>
<path d="M85.2283 207.453C85.162 206.833 84.8826 206.35 84.3902 206.004C83.9025 205.659 83.268 205.486 82.4868 205.486C81.9375 205.486 81.4664 205.569 81.0734 205.734C80.6804 205.9 80.3798 206.125 80.1714 206.409C79.9631 206.693 79.8566 207.018 79.8518 207.382C79.8518 207.685 79.9205 207.948 80.0578 208.17C80.1999 208.393 80.3916 208.582 80.6331 208.739C80.8746 208.89 81.1421 209.018 81.4356 209.122C81.7292 209.226 82.0251 209.314 82.3234 209.385L83.687 209.726C84.2362 209.854 84.7642 210.027 85.2709 210.244C85.7822 210.462 86.2392 210.737 86.6416 211.068C87.0488 211.4 87.3708 211.8 87.6075 212.268C87.8443 212.737 87.9626 213.286 87.9626 213.916C87.9626 214.768 87.7448 215.519 87.3092 216.168C86.8736 216.812 86.2439 217.316 85.42 217.68C84.6009 218.04 83.6089 218.22 82.4442 218.22C81.3125 218.22 80.3301 218.045 79.4967 217.695C78.6681 217.344 78.0195 216.833 77.5507 216.161C77.0867 215.488 76.8357 214.669 76.7979 213.703H79.3902C79.4281 214.21 79.5843 214.631 79.8589 214.967C80.1336 215.304 80.491 215.554 80.9314 215.72C81.3765 215.886 81.8736 215.969 82.4229 215.969C82.9958 215.969 83.4977 215.884 83.9285 215.713C84.3642 215.538 84.7051 215.296 84.9513 214.989C85.1975 214.676 85.323 214.312 85.3277 213.895C85.323 213.516 85.2117 213.204 84.9939 212.957C84.7761 212.706 84.4707 212.498 84.0777 212.332C83.6894 212.162 83.2349 212.01 82.7141 211.878L81.0592 211.452C79.8613 211.144 78.9143 210.678 78.2183 210.053C77.527 209.423 77.1814 208.587 77.1814 207.545C77.1814 206.688 77.4133 205.938 77.8773 205.294C78.3461 204.65 78.983 204.151 79.7879 203.795C80.5928 203.436 81.5043 203.256 82.5223 203.256C83.5545 203.256 84.4588 203.436 85.2354 203.795C86.0166 204.151 86.6298 204.645 87.0749 205.28C87.5199 205.91 87.7496 206.634 87.7638 207.453H85.2283ZM94.9566 218.213C93.8675 218.213 92.9325 217.974 92.1512 217.496C91.3747 217.018 90.7757 216.357 90.3543 215.514C89.9377 214.667 89.7293 213.691 89.7293 212.588C89.7293 211.48 89.9424 210.502 90.3685 209.655C90.7947 208.803 91.396 208.14 92.1725 207.666C92.9538 207.188 93.8771 206.949 94.9424 206.949C95.8278 206.949 96.6114 207.112 97.2932 207.439C97.9798 207.761 98.5267 208.218 98.9339 208.81C99.3411 209.397 99.5731 210.083 99.6299 210.869H97.1725C97.0731 210.344 96.8363 209.906 96.4622 209.555C96.0929 209.2 95.5982 209.023 94.9779 209.023C94.4523 209.023 93.9907 209.165 93.593 209.449C93.1952 209.728 92.8851 210.131 92.6626 210.656C92.4448 211.182 92.3359 211.812 92.3359 212.545C92.3359 213.289 92.4448 213.928 92.6626 214.463C92.8804 214.993 93.1858 215.403 93.5788 215.692C93.9764 215.976 94.4429 216.118 94.9779 216.118C95.3567 216.118 95.6952 216.047 95.9935 215.905C96.2966 215.758 96.5499 215.547 96.7535 215.273C96.9571 214.998 97.0968 214.664 97.1725 214.271H99.6299C99.5683 215.043 99.3411 215.727 98.9481 216.324C98.5551 216.916 98.02 217.38 97.343 217.716C96.6659 218.047 95.8703 218.213 94.9566 218.213ZM104.312 211.608V218H101.741V203.455H104.255V208.945H104.383C104.639 208.329 105.034 207.844 105.569 207.489C106.109 207.129 106.795 206.949 107.629 206.949C108.386 206.949 109.047 207.107 109.61 207.425C110.174 207.742 110.609 208.206 110.917 208.817C111.23 209.428 111.386 210.173 111.386 211.054V218H108.815V211.452C108.815 210.718 108.625 210.147 108.247 209.74C107.873 209.328 107.347 209.122 106.67 209.122C106.215 209.122 105.808 209.222 105.448 209.42C105.093 209.615 104.814 209.896 104.61 210.266C104.411 210.635 104.312 211.082 104.312 211.608ZM118.836 218.213C117.742 218.213 116.798 217.986 116.002 217.531C115.212 217.072 114.603 216.423 114.177 215.585C113.751 214.742 113.538 213.75 113.538 212.609C113.538 211.487 113.751 210.502 114.177 209.655C114.608 208.803 115.209 208.14 115.981 207.666C116.753 207.188 117.66 206.949 118.701 206.949C119.374 206.949 120.008 207.058 120.605 207.276C121.206 207.489 121.736 207.82 122.195 208.27C122.66 208.72 123.024 209.293 123.289 209.989C123.554 210.68 123.687 211.504 123.687 212.46V213.249H114.745V211.516H121.222C121.218 211.023 121.111 210.585 120.903 210.202C120.695 209.813 120.403 209.508 120.029 209.286C119.66 209.063 119.229 208.952 118.737 208.952C118.211 208.952 117.749 209.08 117.352 209.335C116.954 209.586 116.644 209.918 116.421 210.33C116.204 210.737 116.092 211.184 116.088 211.672V213.185C116.088 213.819 116.204 214.364 116.436 214.818C116.668 215.268 116.992 215.614 117.409 215.855C117.825 216.092 118.313 216.21 118.872 216.21C119.246 216.21 119.584 216.158 119.887 216.054C120.19 215.945 120.453 215.786 120.676 215.578C120.898 215.37 121.066 215.112 121.18 214.804L123.58 215.074C123.429 215.708 123.14 216.262 122.714 216.736C122.293 217.205 121.753 217.569 121.095 217.83C120.436 218.085 119.684 218.213 118.836 218.213ZM127.446 218.156C127.015 218.156 126.646 218.005 126.338 217.702C126.03 217.399 125.879 217.029 125.883 216.594C125.879 216.168 126.03 215.803 126.338 215.5C126.646 215.197 127.015 215.045 127.446 215.045C127.863 215.045 128.225 215.197 128.532 215.5C128.845 215.803 129.004 216.168 129.008 216.594C129.004 216.883 128.928 217.145 128.781 217.382C128.639 217.619 128.45 217.808 128.213 217.95C127.981 218.088 127.725 218.156 127.446 218.156ZM127.446 210.372C127.015 210.372 126.646 210.221 126.338 209.918C126.03 209.61 125.879 209.241 125.883 208.81C125.879 208.384 126.03 208.019 126.338 207.716C126.646 207.408 127.015 207.254 127.446 207.254C127.863 207.254 128.225 207.408 128.532 207.716C128.845 208.019 129.004 208.384 129.008 208.81C129.004 209.094 128.928 209.354 128.781 209.591C128.639 209.828 128.45 210.017 128.213 210.159C127.981 210.301 127.725 210.372 127.446 210.372ZM134.234 203.455V218H131.663V203.455H134.234ZM139.449 203.455V218H136.878V203.455H139.449ZM146.851 218.213C145.786 218.213 144.862 217.979 144.081 217.51C143.3 217.041 142.694 216.385 142.263 215.543C141.837 214.7 141.624 213.715 141.624 212.588C141.624 211.461 141.837 210.474 142.263 209.626C142.694 208.779 143.3 208.121 144.081 207.652C144.862 207.183 145.786 206.949 146.851 206.949C147.916 206.949 148.84 207.183 149.621 207.652C150.402 208.121 151.006 208.779 151.432 209.626C151.863 210.474 152.078 211.461 152.078 212.588C152.078 213.715 151.863 214.7 151.432 215.543C151.006 216.385 150.402 217.041 149.621 217.51C148.84 217.979 147.916 218.213 146.851 218.213ZM146.865 216.153C147.443 216.153 147.926 215.995 148.314 215.678C148.702 215.356 148.991 214.925 149.181 214.385C149.375 213.845 149.472 213.244 149.472 212.581C149.472 211.913 149.375 211.31 149.181 210.77C148.991 210.225 148.702 209.792 148.314 209.47C147.926 209.148 147.443 208.987 146.865 208.987C146.273 208.987 145.781 209.148 145.388 209.47C145 209.792 144.709 210.225 144.514 210.77C144.325 211.31 144.23 211.913 144.23 212.581C144.23 213.244 144.325 213.845 144.514 214.385C144.709 214.925 145 215.356 145.388 215.678C145.781 215.995 146.273 216.153 146.865 216.153ZM157.407 203.455L157.172 213.724H154.885L154.658 203.455H157.407ZM156.029 218.156C155.598 218.156 155.229 218.005 154.921 217.702C154.618 217.399 154.466 217.029 154.466 216.594C154.466 216.168 154.618 215.803 154.921 215.5C155.229 215.197 155.598 215.045 156.029 215.045C156.45 215.045 156.815 215.197 157.123 215.5C157.435 215.803 157.591 216.168 157.591 216.594C157.591 216.883 157.518 217.145 157.371 217.382C157.229 217.619 157.04 217.808 156.803 217.95C156.571 218.088 156.313 218.156 156.029 218.156Z" fill="#222B45"/>
</svg>
