<svg width="155" height="127" viewBox="0 0 155 127" fill="none" xmlns="http://www.w3.org/2000/svg">
<path d="M117.5 40C117.5 17.9086 99.5914 0 77.5 0C55.4086 0 37.5 17.9086 37.5 40C37.5 62.0914 55.4086 80 77.5 80C99.5914 80 117.5 62.0914 117.5 40Z" fill="#006FFD"/>
<path d="M83.1792 33.9062C83.0466 32.6657 82.4879 31.6998 81.503 31.0085C80.5277 30.3172 79.2587 29.9716 77.6962 29.9716C76.5977 29.9716 75.6555 30.1373 74.8695 30.4688C74.0835 30.8002 73.4822 31.25 73.0655 31.8182C72.6489 32.3864 72.4358 33.035 72.4263 33.7642C72.4263 34.3703 72.5636 34.8958 72.8383 35.3409C73.1224 35.786 73.5059 36.1648 73.9888 36.4773C74.4718 36.7803 75.0068 37.036 75.594 37.2443C76.1811 37.4527 76.7729 37.6278 77.3695 37.7699L80.0968 38.4517C81.1953 38.7074 82.2511 39.053 83.2644 39.4886C84.2871 39.9242 85.201 40.4735 86.0059 41.1364C86.8203 41.7992 87.4642 42.5994 87.9377 43.5369C88.4112 44.4744 88.6479 45.5729 88.6479 46.8324C88.6479 48.5369 88.2123 50.0379 87.3411 51.3352C86.4699 52.6231 85.2104 53.6316 83.5627 54.3608C81.9244 55.0805 79.9405 55.4403 77.611 55.4403C75.3477 55.4403 73.3828 55.09 71.7161 54.3892C70.0589 53.6884 68.7616 52.6657 67.8241 51.321C66.896 49.9763 66.3941 48.3381 66.3184 46.4062H71.503C71.5788 47.4195 71.8913 48.2623 72.4405 48.9347C72.9898 49.607 73.7047 50.1089 74.5854 50.4403C75.4756 50.7718 76.4699 50.9375 77.5684 50.9375C78.7142 50.9375 79.718 50.767 80.5797 50.4261C81.451 50.0758 82.1328 49.5928 82.6252 48.9773C83.1176 48.3523 83.3686 47.6231 83.378 46.7898C83.3686 46.0322 83.146 45.4072 82.7104 44.9148C82.2748 44.4129 81.664 43.9962 80.878 43.6648C80.1015 43.3239 79.1924 43.0208 78.1508 42.7557L74.8411 41.9034C72.4453 41.2879 70.5513 40.3551 69.1593 39.1051C67.7767 37.8456 67.0854 36.1742 67.0854 34.0909C67.0854 32.3769 67.5494 30.8759 68.4775 29.5881C69.415 28.3002 70.6886 27.3011 72.2985 26.5909C73.9083 25.8712 75.7313 25.5114 77.7672 25.5114C79.8316 25.5114 81.6404 25.8712 83.1934 26.5909C84.7559 27.3011 85.9822 28.2907 86.8724 29.5597C87.7625 30.8191 88.2218 32.268 88.2502 33.9062H83.1792Z" fill="white"/>
<path d="M19.1284 104.906C18.9958 103.666 18.4371 102.7 17.4523 102.009C16.4769 101.317 15.2079 100.972 13.6454 100.972C12.547 100.972 11.6047 101.137 10.8187 101.469C10.0328 101.8 9.43141 102.25 9.01474 102.818C8.59807 103.386 8.38501 104.035 8.37554 104.764C8.37554 105.37 8.51285 105.896 8.78747 106.341C9.07156 106.786 9.45508 107.165 9.93804 107.477C10.421 107.78 10.956 108.036 11.5432 108.244C12.1303 108.453 12.7221 108.628 13.3187 108.77L16.046 109.452C17.1445 109.707 18.2004 110.053 19.2136 110.489C20.2364 110.924 21.1502 111.473 21.9551 112.136C22.7695 112.799 23.4134 113.599 23.8869 114.537C24.3604 115.474 24.5971 116.573 24.5971 117.832C24.5971 119.537 24.1615 121.038 23.2903 122.335C22.4191 123.623 21.1596 124.632 19.5119 125.361C17.8737 126.08 15.8898 126.44 13.5602 126.44C11.297 126.44 9.33197 126.09 7.66531 125.389C6.00811 124.688 4.71076 123.666 3.77326 122.321C2.84523 120.976 2.34334 119.338 2.26758 117.406H7.45224C7.528 118.42 7.8405 119.262 8.38974 119.935C8.93898 120.607 9.65394 121.109 10.5346 121.44C11.4248 121.772 12.4191 121.938 13.5176 121.938C14.6634 121.938 15.6672 121.767 16.529 121.426C17.4002 121.076 18.082 120.593 18.5744 119.977C19.0668 119.352 19.3178 118.623 19.3273 117.79C19.3178 117.032 19.0953 116.407 18.6596 115.915C18.224 115.413 17.6132 114.996 16.8273 114.665C16.0507 114.324 15.1417 114.021 14.1 113.756L10.7903 112.903C8.39447 112.288 6.50054 111.355 5.10849 110.105C3.72591 108.846 3.03463 107.174 3.03463 105.091C3.03463 103.377 3.49864 101.876 4.42667 100.588C5.36417 99.3002 6.63785 98.3011 8.24769 97.5909C9.85754 96.8712 11.6805 96.5114 13.7165 96.5114C15.7809 96.5114 17.5896 96.8712 19.1426 97.5909C20.7051 98.3011 21.9314 99.2907 22.8216 100.56C23.7117 101.819 24.171 103.268 24.1994 104.906H19.1284ZM38.5851 126.426C36.407 126.426 34.5368 125.948 32.9743 124.991C31.4212 124.035 30.2233 122.714 29.3805 121.028C28.5472 119.333 28.1305 117.383 28.1305 115.176C28.1305 112.96 28.5567 111.005 29.4089 109.31C30.2612 107.605 31.4639 106.279 33.0169 105.332C34.5794 104.376 36.426 103.898 38.5567 103.898C40.3275 103.898 41.8947 104.224 43.2584 104.878C44.6315 105.522 45.7252 106.436 46.5396 107.619C47.354 108.794 47.818 110.167 47.9317 111.739H43.0169C42.818 110.687 42.3445 109.812 41.5964 109.111C40.8578 108.401 39.8682 108.045 38.6277 108.045C37.5765 108.045 36.6533 108.33 35.8578 108.898C35.0623 109.456 34.4421 110.261 33.997 111.312C33.5614 112.364 33.3436 113.623 33.3436 115.091C33.3436 116.578 33.5614 117.856 33.997 118.926C34.4326 119.987 35.0434 120.806 35.8294 121.384C36.6248 121.952 37.5576 122.236 38.6277 122.236C39.3853 122.236 40.0623 122.094 40.6589 121.81C41.265 121.516 41.7716 121.095 42.1788 120.545C42.586 119.996 42.8654 119.329 43.0169 118.543H47.9317C47.8086 120.086 47.354 121.455 46.568 122.648C45.782 123.831 44.712 124.759 43.3578 125.432C42.0036 126.095 40.4127 126.426 38.5851 126.426ZM57.296 113.216V126H52.154V96.9091H57.1824V107.889H57.4381C57.9494 106.658 58.7401 105.687 59.8102 104.977C60.8898 104.258 62.2629 103.898 63.9295 103.898C65.4447 103.898 66.7657 104.215 67.8926 104.849C69.0195 105.484 69.8907 106.412 70.5062 107.634C71.1312 108.855 71.4437 110.347 71.4437 112.108V126H66.3017V112.903C66.3017 111.436 65.9229 110.295 65.1653 109.48C64.4172 108.656 63.3661 108.244 62.0119 108.244C61.1028 108.244 60.2884 108.443 59.5687 108.841C58.8585 109.229 58.2998 109.793 57.8926 110.531C57.4949 111.27 57.296 112.165 57.296 113.216ZM86.3443 126.426C84.1568 126.426 82.2676 125.972 80.6767 125.062C79.0953 124.144 77.8784 122.847 77.0261 121.17C76.1739 119.485 75.7477 117.501 75.7477 115.219C75.7477 112.974 76.1739 111.005 77.0261 109.31C77.8879 107.605 79.0905 106.279 80.6341 105.332C82.1776 104.376 83.9911 103.898 86.0744 103.898C87.4191 103.898 88.6881 104.116 89.8812 104.551C91.0839 104.977 92.1445 105.64 93.0631 106.54C93.9911 107.439 94.7203 108.585 95.2506 109.977C95.7809 111.36 96.046 113.008 96.046 114.92V116.497H78.1625V113.031H91.117C91.1076 112.046 90.8945 111.17 90.4778 110.403C90.0612 109.627 89.4788 109.016 88.7307 108.571C87.992 108.126 87.1303 107.903 86.1454 107.903C85.0943 107.903 84.171 108.159 83.3756 108.67C82.5801 109.172 81.9598 109.835 81.5148 110.659C81.0792 111.473 80.8566 112.368 80.8471 113.344V116.369C80.8471 117.638 81.0792 118.727 81.5432 119.636C82.0072 120.536 82.6559 121.227 83.4892 121.71C84.3225 122.184 85.2979 122.42 86.4153 122.42C87.1634 122.42 87.8405 122.316 88.4466 122.108C89.0526 121.89 89.5782 121.573 90.0233 121.156C90.4684 120.74 90.8045 120.223 91.0318 119.608L95.8329 120.148C95.5299 121.417 94.9523 122.525 94.1 123.472C93.2572 124.409 92.1776 125.138 90.8614 125.659C89.5451 126.17 88.0394 126.426 86.3443 126.426ZM103.564 126.312C102.702 126.312 101.963 126.009 101.348 125.403C100.732 124.797 100.429 124.059 100.439 123.188C100.429 122.335 100.732 121.606 101.348 121C101.963 120.394 102.702 120.091 103.564 120.091C104.397 120.091 105.121 120.394 105.737 121C106.362 121.606 106.679 122.335 106.689 123.188C106.679 123.765 106.528 124.291 106.234 124.764C105.95 125.238 105.571 125.616 105.098 125.901C104.634 126.175 104.122 126.312 103.564 126.312ZM103.564 110.744C102.702 110.744 101.963 110.441 101.348 109.835C100.732 109.22 100.429 108.481 100.439 107.619C100.429 106.767 100.732 106.038 101.348 105.432C101.963 104.816 102.702 104.509 103.564 104.509C104.397 104.509 105.121 104.816 105.737 105.432C106.362 106.038 106.679 106.767 106.689 107.619C106.679 108.187 106.528 108.708 106.234 109.182C105.95 109.655 105.571 110.034 105.098 110.318C104.634 110.602 104.122 110.744 103.564 110.744ZM117.14 96.9091V126H111.998V96.9091H117.14ZM127.569 96.9091V126H122.427V96.9091H127.569ZM142.374 126.426C140.243 126.426 138.397 125.957 136.834 125.02C135.272 124.082 134.06 122.771 133.198 121.085C132.346 119.4 131.919 117.43 131.919 115.176C131.919 112.922 132.346 110.948 133.198 109.253C134.06 107.558 135.272 106.241 136.834 105.304C138.397 104.366 140.243 103.898 142.374 103.898C144.505 103.898 146.351 104.366 147.914 105.304C149.476 106.241 150.684 107.558 151.536 109.253C152.398 110.948 152.828 112.922 152.828 115.176C152.828 117.43 152.398 119.4 151.536 121.085C150.684 122.771 149.476 124.082 147.914 125.02C146.351 125.957 144.505 126.426 142.374 126.426ZM142.402 122.307C143.558 122.307 144.524 121.99 145.3 121.355C146.077 120.711 146.654 119.849 147.033 118.77C147.421 117.69 147.615 116.488 147.615 115.162C147.615 113.827 147.421 112.619 147.033 111.54C146.654 110.451 146.077 109.584 145.3 108.94C144.524 108.296 143.558 107.974 142.402 107.974C141.219 107.974 140.234 108.296 139.448 108.94C138.671 109.584 138.089 110.451 137.701 111.54C137.322 112.619 137.132 113.827 137.132 115.162C137.132 116.488 137.322 117.69 137.701 118.77C138.089 119.849 138.671 120.711 139.448 121.355C140.234 121.99 141.219 122.307 142.402 122.307Z" fill="#222B45"/>
</svg>
