<svg width="18" height="18" viewBox="0 0 18 18" fill="none" xmlns="http://www.w3.org/2000/svg">
<rect width="18" height="18" rx="9" fill="#F55549"/>
<path d="M6.04901 13V11.858L9.07884 8.88778C9.36861 8.59517 9.61009 8.33523 9.80327 8.10795C9.99645 7.88068 10.1413 7.66051 10.2379 7.44744C10.3345 7.23437 10.3828 7.0071 10.3828 6.76562C10.3828 6.49006 10.3203 6.25426 10.1953 6.05824C10.0703 5.85938 9.89844 5.70597 9.67969 5.59801C9.46094 5.49006 9.21236 5.43608 8.93395 5.43608C8.64702 5.43608 8.3956 5.49574 8.17969 5.61506C7.96378 5.73153 7.79616 5.89773 7.67685 6.11364C7.56037 6.32955 7.50213 6.58665 7.50213 6.88494H5.99787C5.99787 6.33097 6.12429 5.84943 6.37713 5.44034C6.62997 5.03125 6.97798 4.71449 7.42116 4.49006C7.86719 4.26562 8.37855 4.15341 8.95526 4.15341C9.54048 4.15341 10.0547 4.26278 10.4979 4.48153C10.9411 4.70028 11.2848 5 11.5291 5.38068C11.7763 5.76136 11.8999 6.19602 11.8999 6.68466C11.8999 7.01136 11.8374 7.33239 11.7124 7.64773C11.5874 7.96307 11.3672 8.3125 11.0518 8.69602C10.7393 9.07955 10.3004 9.54403 9.73509 10.0895L8.23082 11.6193V11.679H12.032V13H6.04901Z" fill="white"/>
</svg>
