<svg width="18" height="18" viewBox="0 0 18 18" fill="none" xmlns="http://www.w3.org/2000/svg">
<rect width="18" height="18" rx="9" fill="#FA6E64"/>
<path d="M8.99947 13.1193C8.38583 13.1193 7.84038 13.0142 7.3631 12.804C6.88867 12.5937 6.51367 12.3011 6.2381 11.9261C5.96254 11.5511 5.81623 11.1179 5.79918 10.6264H7.40146C7.41566 10.8622 7.49379 11.0682 7.63583 11.2443C7.77788 11.4176 7.9668 11.5526 8.20259 11.6491C8.43839 11.7457 8.70259 11.794 8.99521 11.794C9.30771 11.794 9.58469 11.7401 9.82617 11.6321C10.0676 11.5213 10.2566 11.3679 10.3929 11.1719C10.5293 10.9759 10.5961 10.75 10.5932 10.4943C10.5961 10.2301 10.5279 9.99716 10.3887 9.79545C10.2495 9.59375 10.0478 9.43608 9.78356 9.32244C9.52219 9.20881 9.20685 9.15199 8.83754 9.15199H8.06623V7.93324H8.83754C9.14151 7.93324 9.40714 7.88068 9.63441 7.77557C9.86452 7.67045 10.0449 7.52273 10.1756 7.33239C10.3063 7.1392 10.3702 6.91619 10.3674 6.66335C10.3702 6.41619 10.3148 6.2017 10.2012 6.01989C10.0904 5.83523 9.93271 5.69176 9.72816 5.58949C9.52646 5.48722 9.28924 5.43608 9.01651 5.43608C8.74947 5.43608 8.50231 5.48437 8.27504 5.58097C8.04776 5.67756 7.86452 5.81534 7.72532 5.99432C7.58612 6.17045 7.51225 6.38068 7.50373 6.625H5.98242C5.99379 6.13636 6.13441 5.70739 6.4043 5.33807C6.67702 4.96591 7.04066 4.67614 7.49521 4.46875C7.94975 4.25852 8.45969 4.15341 9.02504 4.15341C9.60742 4.15341 10.1131 4.26278 10.5421 4.48153C10.9739 4.69744 11.3077 4.98864 11.5435 5.35511C11.7793 5.72159 11.8972 6.12642 11.8972 6.5696C11.9 7.06108 11.7551 7.47301 11.4625 7.8054C11.1728 8.13778 10.7921 8.35511 10.3205 8.45739V8.52557C10.9341 8.6108 11.4043 8.83807 11.731 9.20739C12.0605 9.57386 12.2239 10.0298 12.2211 10.5753C12.2211 11.0639 12.0819 11.5014 11.8034 11.8878C11.5279 12.2713 11.1472 12.5724 10.6614 12.7912C10.1784 13.0099 9.62447 13.1193 8.99947 13.1193Z" fill="white"/>
</svg>
